<svg width="19" height="19" viewBox="0 0 19 19" fill="none" xmlns="http://www.w3.org/2000/svg">
<path fill-rule="evenodd" clip-rule="evenodd" d="M13.1949 7.50684C13.2955 7.60755 13.3521 7.74411 13.3521 7.88651C13.3521 8.02891 13.2955 8.16548 13.1949 8.26618L8.09321 13.3678C7.9925 13.4685 7.85593 13.5251 7.71354 13.5251C7.57114 13.5251 7.43457 13.4685 7.33387 13.3678L4.91729 10.9513C4.81947 10.85 4.76534 10.7143 4.76656 10.5735C4.76778 10.4327 4.82426 10.298 4.92383 10.1985C5.0234 10.0989 5.15809 10.0424 5.29889 10.0412C5.4397 10.04 5.57535 10.0941 5.67663 10.1919L7.71354 12.2288L12.4355 7.50684C12.5362 7.40617 12.6728 7.34961 12.8152 7.34961C12.9576 7.34961 13.0942 7.40617 13.1949 7.50684Z" fill="#007AF3"/>
<circle cx="9.07439" cy="9.71648" r="8.48856" stroke="#007AF3" stroke-width="1.17167"/>
</svg>
