<svg width="69" height="69" viewBox="0 0 69 69" fill="none" xmlns="http://www.w3.org/2000/svg">
<circle cx="34.0499" cy="34.0499" r="33.0499" stroke="#007AF3" stroke-width="2"/>
<path d="M34.4026 46.5724C34.1131 46.5686 33.8365 46.4519 33.6318 46.2472C33.4271 46.0425 33.3104 45.7659 33.3066 45.4764V22.096C33.3066 21.8053 33.4221 21.5265 33.6276 21.321C33.8332 21.1155 34.1119 21 34.4026 21C34.6933 21 34.972 21.1155 35.1776 21.321C35.3831 21.5265 35.4986 21.8053 35.4986 22.096V45.4764C35.4948 45.7659 35.3781 46.0425 35.1734 46.2472C34.9687 46.4519 34.6921 46.5686 34.4026 46.5724Z" fill="#007AF3"/>
<path d="M36.5943 43.6495H27.096C26.8053 43.6495 26.5265 43.534 26.321 43.3285C26.1155 43.123 26 42.8442 26 42.5535C26 42.2629 26.1155 41.9841 26.321 41.7786C26.5265 41.5731 26.8053 41.4576 27.096 41.4576H36.5943C37.561 41.5437 38.5229 41.2478 39.2741 40.6333C40.0252 40.0187 40.5058 39.1343 40.6128 38.1697C40.5058 37.2051 40.0252 36.3208 39.2741 35.7062C38.5229 35.0916 37.561 34.7957 36.5943 34.8818H32.2104C31.4425 34.9313 30.6724 34.8287 29.9442 34.5799C29.216 34.331 28.5442 33.9409 27.9672 33.4317C27.3902 32.9226 26.9194 32.3045 26.5818 31.613C26.2442 30.9215 26.0465 30.1702 26 29.4021C26.0465 28.6339 26.2442 27.8826 26.5818 27.1911C26.9194 26.4996 27.3902 25.8815 27.9672 25.3724C28.5442 24.8633 29.216 24.4731 29.9442 24.2242C30.6724 23.9754 31.4425 23.8728 32.2104 23.9223H40.2475C40.5381 23.9223 40.8169 24.0377 41.0224 24.2433C41.2279 24.4488 41.3434 24.7276 41.3434 25.0182C41.3434 25.3089 41.2279 25.5876 41.0224 25.7932C40.8169 25.9987 40.5381 26.1142 40.2475 26.1142H32.2104C31.2437 26.028 30.2817 26.3239 29.5306 26.9385C28.7794 27.5531 28.2989 28.4374 28.1919 29.4021C28.2989 30.3667 28.7794 31.251 29.5306 31.8656C30.2817 32.4802 31.2437 32.7761 32.2104 32.6899H36.5943C37.3622 32.6404 38.1323 32.743 38.8605 32.9919C39.5886 33.2407 40.2605 33.6309 40.8375 34.14C41.4145 34.6492 41.8853 35.2672 42.2229 35.9587C42.5605 36.6502 42.7582 37.4016 42.8047 38.1697C42.7582 38.9378 42.5605 39.6892 42.2229 40.3807C41.8853 41.0722 41.4145 41.6903 40.8375 42.1994C40.2605 42.7085 39.5886 43.0987 38.8605 43.3475C38.1323 43.5964 37.3622 43.699 36.5943 43.6495Z" fill="#007AF3"/>
</svg>
