<svg width="46" height="45" viewBox="0 0 46 45" fill="none" xmlns="http://www.w3.org/2000/svg">
<circle cx="23.043" cy="22.5" r="21.8571" stroke="black" stroke-width="1.28571"/>
<g clip-path="url(#clip0_1875_1064)">
<path d="M21.201 20.6572C22.1459 19.7123 23.4178 19.1668 24.7537 19.1335C26.0896 19.1001 27.3872 19.5815 28.3781 20.478L28.5666 20.6572L31.5124 23.6041C32.4718 24.5652 33.0179 25.863 33.0343 27.2209C33.0506 28.5789 32.536 29.8895 31.6 30.8734C30.664 31.8573 29.3807 32.4368 28.0237 32.4883C26.6666 32.5397 25.3432 32.0591 24.3353 31.1489L24.1478 30.9697L21.9374 28.7593C21.7506 28.5718 21.6421 28.3203 21.6341 28.0558C21.626 27.7912 21.7189 27.5336 21.8939 27.335C22.069 27.1365 22.313 27.0121 22.5765 26.987C22.8399 26.9619 23.1031 27.038 23.3124 27.1999L23.4103 27.2864L25.6208 29.4968C26.1938 30.0731 26.9687 30.4036 27.7813 30.418C28.5939 30.4325 29.3801 30.1298 29.9732 29.5742C30.5664 29.0186 30.9197 28.2538 30.9584 27.442C30.997 26.6303 30.7178 25.8354 30.1801 25.226L30.0395 25.077L27.0937 22.1312C26.8035 21.8409 26.459 21.6107 26.0798 21.4536C25.7006 21.2965 25.2942 21.2157 24.8838 21.2157C24.4734 21.2157 24.067 21.2965 23.6878 21.4536C23.3086 21.6107 22.9641 21.8409 22.6739 22.1312C22.4784 22.3265 22.2134 22.4362 21.9371 22.4361C21.6607 22.436 21.3958 22.3261 21.2004 22.1306C21.0051 21.9352 20.8955 21.6701 20.8956 21.3938C20.8956 21.1175 21.0055 20.8525 21.201 20.6572ZM14.5718 14.028C15.5167 13.0832 16.7887 12.5377 18.1245 12.5043C19.4604 12.471 20.758 12.9523 21.7489 13.8489L21.9374 14.028L24.1468 16.2395C24.3336 16.427 24.4421 16.6785 24.4502 16.943C24.4582 17.2076 24.3653 17.4652 24.1903 17.6638C24.0153 17.8623 23.7712 17.9867 23.5078 18.0118C23.2443 18.0369 22.9812 17.9608 22.7718 17.7989L22.6739 17.7124L20.4645 15.503C19.8905 14.9328 19.1177 14.6074 18.3087 14.5953C17.4997 14.5832 16.7175 14.8854 16.1268 15.4382C15.536 15.9911 15.1827 16.7515 15.1412 17.5596C15.0996 18.3676 15.3731 19.1602 15.9041 19.7708L16.0447 19.9208L18.9916 22.8676C19.5776 23.4535 20.3723 23.7826 21.201 23.7826C22.0296 23.7826 22.8243 23.4535 23.4103 22.8676C23.5071 22.7708 23.6219 22.6941 23.7483 22.6417C23.8747 22.5893 24.0101 22.5623 24.147 22.5622C24.2838 22.5622 24.4193 22.5891 24.5457 22.6414C24.6721 22.6937 24.787 22.7704 24.8838 22.8671C24.9806 22.9638 25.0573 23.0786 25.1098 23.205C25.1622 23.3314 25.1892 23.4669 25.1892 23.6037C25.1892 23.7405 25.1623 23.876 25.11 24.0025C25.0577 24.1289 24.981 24.2438 24.8843 24.3405C23.9394 25.2854 22.6674 25.8309 21.3316 25.8643C19.9957 25.8976 18.6981 25.4162 17.7072 24.5197L17.5176 24.3405L14.5718 21.3937C13.5954 20.417 13.0469 19.0924 13.0469 17.7114C13.0469 16.3303 13.5954 15.0048 14.5718 14.028Z" fill="black"/>
</g>
<defs>
<clipPath id="clip0_1875_1064">
<rect width="25" height="25" fill="white" transform="translate(10.543 10)"/>
</clipPath>
</defs>
</svg>
