<svg width="69" height="69" viewBox="0 0 69 69" fill="none" xmlns="http://www.w3.org/2000/svg">
<circle cx="34.8799" cy="34.8799" r="33" stroke="#007AF3" stroke-width="2"/>
<path d="M34.9299 22.0898C28.2327 22.0898 22.7842 27.5384 22.7842 34.2355V39.2675C22.7842 40.5112 23.8736 41.523 25.2133 41.523H26.4279C26.75 41.523 27.0589 41.395 27.2867 41.1672C27.5145 40.9394 27.6425 40.6305 27.6425 40.3084V34.0619C27.6425 33.7397 27.5145 33.4308 27.2867 33.203C27.0589 32.9752 26.75 32.8473 26.4279 32.8473H25.3251C26.0004 28.1469 30.0449 24.519 34.9299 24.519C39.8149 24.519 43.8594 28.1469 44.5347 32.8473H43.4319C43.1097 32.8473 42.8008 32.9752 42.573 33.203C42.3453 33.4308 42.2173 33.7397 42.2173 34.0619V41.523C42.2173 42.8626 41.1278 43.9521 39.7882 43.9521H37.359V42.7375H32.5007V46.3812H39.7882C42.4675 46.3812 44.6464 44.2023 44.6464 41.523C45.9861 41.523 47.0756 40.5112 47.0756 39.2675V34.2355C47.0756 27.5384 41.627 22.0898 34.9299 22.0898Z" fill="#007AF3"/>
</svg>
