<svg width="69" height="69" viewBox="0 0 69 69" fill="none" xmlns="http://www.w3.org/2000/svg">
<circle cx="34.0499" cy="34.0499" r="33.0499" stroke="#007AF3" stroke-width="2"/>
<g clip-path="url(#clip0_1813_1042)">
<path d="M16 31.8293C16.1602 31.1963 16.2564 30.5313 16.4888 29.9223C17.274 27.8231 18.7483 26.3808 20.8395 25.5796C21.0719 25.4915 21.144 25.3793 21.152 25.1309C21.2321 21.5894 23.9884 18.5046 27.5139 18.0639C30.4224 17.7034 32.778 18.729 34.5568 21.0526C34.685 21.2289 34.7811 21.2769 35.0055 21.2048C38.595 19.9709 42.3448 21.4772 44.0996 24.8585C44.1957 25.0428 44.2999 25.0908 44.5002 25.1069C47.9616 25.3633 50.6217 27.5987 51.3909 30.8998C52.3443 34.9862 49.532 39.1526 45.3735 39.8097C45.1893 39.8417 45.005 39.8657 44.8287 39.8978C44.7165 40.5388 44.6364 41.1718 44.4922 41.8048C43.5147 46.0593 39.9011 49.4085 35.5743 50.0976C29.9336 50.987 24.6454 47.5817 23.1471 42.0611C22.9788 41.4522 22.9067 40.8112 22.8186 40.1862C22.7865 39.9859 22.7545 39.8978 22.5221 39.8657C19.1168 39.4251 16.5288 36.8531 16.0641 33.4398C16.0561 33.3597 16.024 33.2875 16 33.2074C16 32.7587 16 32.294 16 31.8293ZM22.7625 38.5597C23.0429 33.0952 27.634 28.392 33.443 28.2237C36.0711 28.1516 38.4508 28.9128 40.518 30.5313C43.098 32.5504 44.4842 35.2266 44.7886 38.4796C44.8768 38.4796 44.9489 38.4876 45.013 38.4796C48.0978 38.063 50.3893 35.2105 50.165 32.0937C49.9326 28.9288 47.2565 26.453 44.0996 26.493C43.3624 26.501 43.2983 26.461 43.0019 25.7879C41.6878 22.7352 38.0582 21.325 35.0295 22.6871C34.3084 23.0076 34.1161 22.9355 33.6994 22.2865C32.3213 20.1552 30.3422 19.1456 27.8343 19.4341C24.6214 19.8026 22.418 22.4948 22.5381 25.7479C22.5622 26.3808 22.442 26.5411 21.833 26.7093C19.3332 27.3984 17.5384 29.6018 17.3942 32.1498C17.2499 34.7618 18.7483 37.1415 21.168 38.103C21.6728 38.3033 22.2176 38.4075 22.7625 38.5597ZM28.5314 44.513C28.2911 42.9986 28.0427 41.4843 27.8023 39.9619C26.6405 39.9619 25.4306 39.9619 24.2207 39.9619C24.2127 40.01 24.1967 40.042 24.1967 40.0741C24.357 42.0211 25.0701 43.7438 26.288 45.2661C26.336 45.3222 26.4722 45.3703 26.5443 45.3382C27.2334 45.0578 27.9225 44.7694 28.5314 44.513ZM43.4666 39.9619C42.1205 39.9619 40.9106 39.9619 39.7648 39.9619C39.5165 41.5003 39.2681 43.0066 39.0277 44.513C39.6206 44.7533 40.2696 45.0097 40.9106 45.2982C41.127 45.3943 41.2311 45.3462 41.3673 45.17C42.0163 44.3207 42.5612 43.4072 42.8737 42.3816C43.106 41.6044 43.2583 40.8032 43.4666 39.9619ZM39.1158 34.3051C39.3242 35.7233 39.5405 37.1255 39.7488 38.5277C40.9347 38.5277 42.1445 38.5277 43.3865 38.5277C43.2262 36.5726 42.5612 34.858 41.3994 33.3597C40.5901 33.6882 39.837 34.0007 39.1158 34.3051ZM24.1807 38.5277C25.4466 38.5277 26.6565 38.5277 27.8183 38.5277C28.0347 37.1015 28.243 35.6993 28.4513 34.3051C27.7222 34.0007 26.961 33.6882 26.1678 33.3597C25.006 34.866 24.3409 36.5807 24.1807 38.5277ZM33.0745 39.9619C31.8005 39.9619 30.5586 39.9619 29.2926 39.9619C29.3487 41.4121 29.549 42.8063 29.9817 44.1364C31.0313 44.0162 32.0489 43.896 33.0745 43.7758C33.0745 42.5098 33.0745 41.2519 33.0745 39.9619ZM34.4847 43.7758C35.5343 43.896 36.5439 44.0162 37.5775 44.1364C38.0021 42.7823 38.2184 41.3881 38.2585 39.9619C36.9765 39.9619 35.7346 39.9619 34.4847 39.9619C34.4847 41.2519 34.4847 42.5098 34.4847 43.7758ZM29.3006 38.5197C30.5906 38.5197 31.8325 38.5197 33.0665 38.5197C33.0665 37.3418 33.0665 36.188 33.0665 35.0663C31.9928 34.9381 30.9592 34.8099 29.8855 34.6817C29.517 35.9316 29.3407 37.2056 29.3006 38.5197ZM34.5007 35.0663C34.5007 36.2121 34.5007 37.3659 34.5007 38.5197C35.7666 38.5197 37.0086 38.5197 38.2665 38.5197C38.2184 37.1976 38.0422 35.9236 37.6816 34.6817C36.608 34.8179 35.5663 34.9381 34.5007 35.0663ZM33.0584 33.6721C33.0584 32.4382 33.0584 31.2844 33.0584 30.0826C31.6402 30.7636 30.9512 31.9735 30.3342 33.3597C31.2797 33.4638 32.1611 33.568 33.0584 33.6721ZM34.5007 30.0826C34.5007 31.2925 34.5007 32.4543 34.5007 33.6641C35.4061 33.56 36.2875 33.4558 37.2329 33.3516C36.608 31.9655 35.9269 30.7396 34.5007 30.0826ZM33.0665 45.178C32.2011 45.2741 31.3598 45.3703 30.4784 45.4664C31.1034 46.7164 31.7604 47.8141 33.0665 48.391C33.0665 47.3173 33.0665 46.2997 33.0665 45.178ZM34.4927 48.3429C35.326 48.2067 36.64 46.6923 37.0246 45.4584C36.1833 45.3703 35.35 45.2741 34.4927 45.186C34.4927 46.2757 34.4927 47.3013 34.4927 48.3429ZM38.6752 32.9751C39.212 32.7667 39.7889 32.5344 40.4299 32.278C39.3883 31.3085 38.2825 30.6194 37.0566 30.1867C37.5694 31.0841 38.0983 31.9895 38.6752 32.9751ZM28.892 32.9751C29.4529 32.0056 29.9817 31.0921 30.5105 30.1867C29.2846 30.6274 28.1709 31.3085 27.1373 32.286C27.7783 32.5344 28.3632 32.7587 28.892 32.9751ZM40.1655 46.4359C39.6206 46.2356 39.1399 46.0674 38.6671 45.8831C38.4989 45.819 38.4268 45.8751 38.3466 46.0273C38.1704 46.4039 37.9861 46.7805 37.7698 47.133C37.5374 47.5176 37.257 47.8862 36.9605 48.3189C38.1624 47.8942 39.188 47.2933 40.1655 46.4359ZM30.5345 48.2948C30.0458 47.4856 29.557 46.6763 29.0442 45.827C28.5394 46.0193 28.0026 46.2196 27.4097 46.4439C28.3872 47.2933 29.4048 47.9022 30.5345 48.2948Z" fill="#007AF3"/>
<circle cx="34.0499" cy="34.0499" r="33.0499" stroke="#007AF3" stroke-width="2"/>
</g>
<defs>
<clipPath id="clip0_1813_1042">
<rect width="35.5752" height="32.25" fill="white" transform="translate(16 18)"/>
</clipPath>
</defs>
</svg>
