<svg width="68" height="68" viewBox="0 0 68 68" fill="none" xmlns="http://www.w3.org/2000/svg">
<circle cx="34.2495" cy="33.7499" r="32.8351" stroke="#00B574" stroke-width="1.82974" stroke-dasharray="1.54 1.54"/>
<g clip-path="url(#clip0_1702_1346)">
<path d="M46.6452 13.3662C47.4199 13.8204 47.5501 14.0898 47.4058 14.9982C47.2579 15.9419 47.1012 16.8855 46.941 17.8291C46.8266 18.5017 46.2403 18.9242 45.603 18.808C44.9903 18.6971 44.5907 18.102 44.6981 17.4489C44.8495 16.5176 45.0308 15.5898 45.1541 14.6549C45.2333 14.0563 45.4886 13.6197 46.0396 13.3662C46.2403 13.3662 46.4428 13.3662 46.6452 13.3662Z" fill="url(#paint0_linear_1702_1346)"/>
<path d="M56.6376 23.9633C56.3788 24.5355 55.9158 24.7767 55.3119 24.8577C54.3894 24.9827 53.4739 25.1552 52.5549 25.3031C51.9 25.4087 51.3049 25.0091 51.1958 24.3964C51.0814 23.7574 51.5074 23.1729 52.1764 23.0602C53.2063 22.8859 54.2362 22.7134 55.2661 22.5444C55.9457 22.4335 56.3524 22.7961 56.6393 23.356C56.6376 23.5602 56.6376 23.7626 56.6376 23.9633Z" fill="url(#paint1_linear_1702_1346)"/>
<path d="M35.0043 17.9844C44.4249 18.0002 52.048 25.6444 52.0198 35.0456C51.9917 44.4997 44.3439 52.1351 34.9181 52.1227C25.5574 52.1087 17.8621 44.3764 17.878 34.9964C17.892 25.6075 25.5838 17.9686 35.0043 17.9844ZM49.7487 35.0404C49.7681 26.9155 43.1573 20.2801 35.0167 20.2555C26.8443 20.2308 20.1649 26.8522 20.1473 34.9928C20.1297 43.1564 26.7739 49.8253 34.9515 49.8517C43.0799 49.8781 49.7276 43.225 49.7487 35.0404Z" fill="url(#paint2_linear_1702_1346)"/>
<path d="M52.4491 16.2275C53.1093 16.2434 53.4649 16.4511 53.6621 16.8807C53.8716 17.3367 53.8012 17.7768 53.4579 18.143C53.053 18.5761 52.6252 18.9863 52.2062 19.4053C51.5829 20.0303 50.9597 20.6553 50.3312 21.2767C49.7925 21.8102 49.0865 21.8419 48.62 21.363C48.1622 20.8929 48.1974 20.2028 48.7168 19.6799C49.7309 18.6606 50.7396 17.636 51.7731 16.6377C51.9966 16.423 52.3118 16.3085 52.4491 16.2275Z" fill="url(#paint3_linear_1702_1346)"/>
<path d="M35.0232 33.8799C37.9633 33.8799 40.9016 33.8799 43.8417 33.8799C44.7923 33.8799 45.2166 34.3165 45.2008 35.2777C45.118 40.3304 41.0917 44.6877 36.0584 45.1701C30.525 45.7 25.6801 41.929 24.8632 36.445C24.8033 36.0471 24.7805 35.6422 24.7699 35.239C24.747 34.3288 25.1889 33.8799 26.0903 33.8799C29.0691 33.8799 32.0461 33.8799 35.0232 33.8799ZM27.1184 36.165C27.4019 37.9449 28.1624 39.4291 29.4071 40.6702C32.4951 37.6773 37.4598 37.6738 40.5477 40.6579C41.6745 39.7055 42.7554 37.5682 42.8153 36.165C37.5953 36.165 32.3754 36.165 27.1184 36.165ZM31.3455 42.0434C33.6218 43.3638 36.9246 43.1561 38.6023 42.017C36.6587 40.2583 33.2151 40.2618 31.3455 42.0434Z" fill="url(#paint4_linear_1702_1346)"/>
<path d="M32.7101 29.2289C32.7242 29.9102 32.2806 30.4278 31.6485 30.47C31.0095 30.5123 30.4971 30.0317 30.4408 29.3345C30.3862 28.662 29.9232 28.2025 29.3035 28.2025C28.6856 28.2042 28.2243 28.6655 28.1697 29.338C28.1134 30.0246 27.6275 30.4929 26.9972 30.4718C26.3493 30.4489 25.8881 29.9243 25.9022 29.2253C25.9409 27.412 27.4884 25.9226 29.3264 25.9332C31.1485 25.942 32.6732 27.4278 32.7101 29.2289Z" fill="url(#paint5_linear_1702_1346)"/>
<path d="M44.0672 29.2517C44.076 29.926 43.6165 30.4418 42.9845 30.4717C42.3524 30.4999 41.856 30.0316 41.7996 29.3503C41.7433 28.669 41.2961 28.2112 40.6782 28.2024C40.0461 28.1936 39.5866 28.6566 39.5285 29.3591C39.4722 30.0334 38.9652 30.5034 38.3331 30.47C37.7011 30.4348 37.2487 29.9172 37.261 29.2411C37.2892 27.4296 38.8349 25.9296 40.6711 25.9331C42.5056 25.9349 44.0443 27.4366 44.0672 29.2517Z" fill="url(#paint6_linear_1702_1346)"/>
</g>
<defs>
<linearGradient id="paint0_linear_1702_1346" x1="44.6807" y1="16.0967" x2="47.4573" y2="16.0967" gradientUnits="userSpaceOnUse">
<stop stop-color="#00355F"/>
</linearGradient>
<linearGradient id="paint1_linear_1702_1346" x1="51.1772" y1="23.9222" x2="56.6393" y2="23.9222" gradientUnits="userSpaceOnUse">
<stop stop-color="#00355F"/>
</linearGradient>
<linearGradient id="paint2_linear_1702_1346" x1="17.8779" y1="35.0536" x2="52.0199" y2="35.0536" gradientUnits="userSpaceOnUse">
<stop stop-color="#00355F"/>
</linearGradient>
<linearGradient id="paint3_linear_1702_1346" x1="48.3003" y1="18.9641" x2="53.7801" y2="18.9641" gradientUnits="userSpaceOnUse">
<stop stop-color="#00355F"/>
</linearGradient>
<linearGradient id="paint4_linear_1702_1346" x1="24.769" y1="39.5498" x2="45.2012" y2="39.5498" gradientUnits="userSpaceOnUse">
<stop stop-color="#00355F"/>
</linearGradient>
<linearGradient id="paint5_linear_1702_1346" x1="25.9019" y1="28.2029" x2="32.7104" y2="28.2029" gradientUnits="userSpaceOnUse">
<stop stop-color="#00355F"/>
</linearGradient>
<linearGradient id="paint6_linear_1702_1346" x1="37.2607" y1="28.203" x2="44.0673" y2="28.203" gradientUnits="userSpaceOnUse">
<stop stop-color="#00355F"/>
</linearGradient>
<clipPath id="clip0_1702_1346">
<rect width="38.7615" height="38.7562" fill="white" transform="translate(17.8765 13.3662)"/>
</clipPath>
</defs>
</svg>
