<svg width="44" height="44" viewBox="0 0 44 44" fill="none" xmlns="http://www.w3.org/2000/svg">
<path d="M34.6668 21.9999H31.8522M31.8522 21.9999C31.8522 24.613 30.8148 27.1184 28.9671 28.9661C27.1193 30.8139 24.6133 31.8519 22.0002 31.8519M31.8522 21.9999C31.8522 19.3868 30.8148 16.8801 28.9671 15.0324C27.1193 13.1846 24.6133 12.1479 22.0002 12.1479M22.0002 9.33325V12.1479M22.0002 12.1479C19.3873 12.1479 16.8814 13.1846 15.0337 15.0322C13.1861 16.8798 12.1482 19.3857 12.1482 21.9986C12.1482 24.6115 13.1861 27.1174 15.0337 28.965C16.8814 30.8126 19.3873 31.8519 22.0002 31.8519M9.3335 21.9999H12.1482M22.0002 34.6666V31.8519" stroke="#007AF3" stroke-width="1.5" stroke-miterlimit="10" stroke-linecap="round"/>
<path d="M21.9999 27.6293C23.4929 27.6293 24.9248 27.0362 25.9805 25.9805C27.0362 24.9248 27.6293 23.4929 27.6293 21.9999C27.6293 20.5069 27.0362 19.0751 25.9805 18.0194C24.9248 16.9637 23.4929 16.3706 21.9999 16.3706C20.5069 16.3706 19.0751 16.9637 18.0194 18.0194C16.9637 19.0751 16.3706 20.5069 16.3706 21.9999C16.3706 23.4929 16.9637 24.9248 18.0194 25.9805C19.0751 27.0362 20.5069 27.6293 21.9999 27.6293Z" stroke="#007AF3" stroke-width="1.5" stroke-miterlimit="10" stroke-linecap="round"/>
<circle cx="21.6691" cy="21.6691" r="20.6691" stroke="#00B574" stroke-width="2" stroke-dasharray="2 2"/>
</svg>
