<svg width="56" height="56" viewBox="0 0 56 56" fill="none" xmlns="http://www.w3.org/2000/svg">
<circle cx="28" cy="28" r="27" stroke="#007AF3" stroke-width="2"/>
<g clip-path="url(#clip0_1876_1689)">
<path d="M27.3214 42.36C26.9689 42.1949 26.6188 42.0199 26.2614 41.8695C23.9762 40.913 22.0164 39.5128 20.4338 37.6023C18.6072 35.401 17.4855 32.8841 17.1182 30.0467C17.0246 29.3294 16.9802 28.6046 16.9753 27.8799C16.9555 25.6169 16.9728 23.3539 16.9629 21.0909C16.9605 20.7359 17.0862 20.5165 17.4017 20.344C20.6582 18.5691 23.9097 16.7868 27.1587 14.9996C27.4101 14.8615 27.632 14.8517 27.8884 14.9872C31.2459 16.7819 34.6059 18.5691 37.9658 20.3538C38.2617 20.5116 38.3849 20.7211 38.3824 21.0613C38.3726 23.3342 38.3824 25.607 38.3775 27.8774C38.3652 33.8997 34.8967 39.18 29.3798 41.5934C28.8005 41.8473 28.2212 42.1037 27.6419 42.36C27.5359 42.36 27.4274 42.36 27.3214 42.36ZM17.9983 25.252C17.9786 25.252 17.9588 25.2545 17.9367 25.2545C18.0032 26.8174 17.9687 28.3902 18.1536 29.9407C18.5332 33.1133 19.9581 35.8028 22.2358 38.0411C23.71 39.4882 25.4726 40.4718 27.3732 41.2286C27.4447 41.2581 27.5507 41.2606 27.6221 41.2286C28.3666 40.9032 29.1357 40.6172 29.8432 40.2277C34.7217 37.5407 37.2214 33.3894 37.3446 27.8281C37.3915 25.7081 37.3496 23.5881 37.3569 21.4681C37.3569 21.2733 37.3027 21.1673 37.1252 21.0736C33.9994 19.4146 30.8761 17.7507 27.7577 16.0818C27.5975 15.9955 27.4767 15.9979 27.3165 16.0842C24.2868 17.7531 21.2547 19.4146 18.2201 21.0712C18.0427 21.1673 17.9934 21.2758 17.9934 21.4681C18.0007 22.7302 17.9983 23.9924 17.9983 25.252Z" fill="#007AF3" stroke="#007AF3" stroke-width="0.89933" stroke-miterlimit="10"/>
<path d="M26.133 30.5442C26.6729 30.1054 27.1979 29.6789 27.723 29.25C29.138 28.0988 30.5505 26.9475 31.968 25.7988C32.0641 25.7224 32.1726 25.6435 32.2884 25.6164C32.5325 25.5621 32.7272 25.6583 32.848 25.8826C32.9663 26.1045 32.9146 26.3436 32.6927 26.5285C32.2317 26.913 31.7658 27.2853 31.2999 27.6649C29.7198 28.9542 28.1396 30.2409 26.5595 31.5277C26.5176 31.5623 26.4757 31.5943 26.4338 31.6264C26.1355 31.8507 25.8791 31.831 25.6351 31.5475C24.7575 30.522 23.8799 29.4965 23.0072 28.4685C22.7829 28.2023 22.7878 27.9015 23.0072 27.7043C23.234 27.4997 23.5545 27.5342 23.7837 27.8005C24.4543 28.5795 25.1198 29.3634 25.7879 30.1448C25.8964 30.273 26.0073 30.3987 26.133 30.5442Z" fill="#007AF3" stroke="#007AF3" stroke-width="0.89933" stroke-miterlimit="10"/>
</g>
<defs>
<clipPath id="clip0_1876_1689">
<rect width="22.1615" height="28.211" fill="white" transform="translate(16.5928 14.5186)"/>
</clipPath>
</defs>
</svg>
