<svg width="68" height="68" viewBox="0 0 68 68" fill="none" xmlns="http://www.w3.org/2000/svg">
<circle cx="34.2495" cy="33.7499" r="32.8351" stroke="#00B574" stroke-width="1.82974" stroke-dasharray="1.54 1.54"/>
<g clip-path="url(#clip0_1702_1552)">
<path d="M53.8953 33.3692C53.8953 34.1346 53.8953 34.9 53.8953 35.6654C53.8745 35.7693 53.8481 35.8733 53.833 35.9791C53.712 36.7936 53.6402 37.6176 53.4701 38.4226C51.0625 49.7994 38.5027 56.1095 27.9348 51.2602C17.8942 46.6528 14.1315 34.5655 19.7689 25.0465C19.8388 24.9274 19.9125 24.7838 19.9144 24.6534C19.9182 23.7859 20.2338 23.0243 20.6628 22.2911C21.7041 20.5052 22.7397 18.7174 23.7659 16.924C23.97 16.5668 24.2175 16.2833 24.6087 16.1416C24.7769 16.1416 24.9432 16.1416 25.1114 16.1416C25.5026 16.3041 25.7577 16.6008 25.9581 16.9675C26.2132 17.4342 26.4967 17.8859 26.7669 18.3432C26.8746 18.2922 26.9389 18.2639 27.0012 18.2317C28.7021 17.3416 30.4974 16.7237 32.3929 16.4156C33.0487 16.3079 33.7101 16.2323 34.3697 16.1416C35.135 16.1416 35.9004 16.1416 36.6658 16.1416C36.7584 16.1624 36.8491 16.187 36.9417 16.2002C37.8847 16.3476 38.841 16.4345 39.7689 16.6462C46.8425 18.2601 52.4156 24.1904 53.6118 31.349C53.7271 32.0199 53.8027 32.6946 53.8953 33.3692ZM20.8026 27.7281C17.845 33.8133 19.03 42.4801 25.89 47.5656C32.5516 52.5037 41.7135 51.6136 47.4302 45.5303C52.9391 39.668 53.1829 30.3285 48.0123 24.1639C42.4997 17.593 33.7555 16.9504 27.8876 20.2274C28.0293 20.4731 28.1767 20.715 28.3147 20.9644C28.7304 21.7166 29.2237 22.4385 29.5393 23.2303C30.2536 25.0257 29.6016 27.2103 28.0539 28.5143C26.4626 29.8561 24.1608 30.0809 22.3976 29.0056C21.8156 28.6503 21.3223 28.1495 20.8026 27.7281ZM24.8582 19.3335C23.97 20.8832 23.1082 22.3572 22.2823 23.8521C22.1349 24.1185 22.0782 24.4701 22.082 24.7819C22.1047 26.5281 23.6638 27.7848 25.3949 27.4768C27.0693 27.1782 28.1975 25.226 27.4416 23.7878C26.6554 22.2873 25.7464 20.8529 24.8582 19.3335Z" fill="#00355F" stroke="#00355F" stroke-width="0.283474" stroke-miterlimit="10"/>
<path d="M35.5162 40.1025C37.8766 40.2197 39.6341 41.2761 40.8002 43.302C41.1063 43.8349 40.9306 44.4718 40.4298 44.7723C39.9101 45.0841 39.2694 44.9291 38.9444 44.3735C38.3207 43.3077 37.4457 42.5782 36.2173 42.3476C34.5883 42.0415 33.0557 42.7634 32.1731 44.2356C31.918 44.6608 31.5873 44.9367 31.0789 44.9027C30.2965 44.8517 29.8297 44.0126 30.219 43.319C31.1866 41.5879 32.6531 40.5353 34.6129 40.1951C34.919 40.1384 35.2308 40.129 35.5162 40.1025Z" fill="#00355F" stroke="#00355F" stroke-width="0.283474" stroke-miterlimit="10"/>
<path d="M38.3001 33.9782C38.3984 32.009 40.0142 30.4632 41.9834 30.4556C43.9696 30.448 45.6175 32.0355 45.6969 34.033C45.7233 34.6907 45.2925 35.2009 44.682 35.235C44.0641 35.269 43.5992 34.8268 43.55 34.154C43.4858 33.3036 42.9585 32.7234 42.1629 32.6251C41.441 32.5344 40.7531 32.9728 40.5244 33.6796C40.4772 33.8252 40.4621 33.982 40.4451 34.137C40.3657 34.8457 39.9084 35.2822 39.2847 35.2368C38.6592 35.1896 38.2642 34.685 38.3001 33.9782Z" fill="#00355F" stroke="#00355F" stroke-width="0.283474" stroke-miterlimit="10"/>
<path d="M32.74 34.0253C32.7664 34.6829 32.3733 35.1762 31.778 35.2329C31.1695 35.2914 30.6271 34.8606 30.6158 34.1935C30.6007 33.2788 29.7786 32.4321 28.7222 32.6476C28.0154 32.7912 27.5524 33.3695 27.4863 34.2029C27.4485 34.6791 27.2141 35.0099 26.7643 35.1724C26.3372 35.3273 25.9253 35.2423 25.6607 34.8965C25.4812 34.6602 25.347 34.3125 25.3564 34.0215C25.4188 32.0202 27.0894 30.4346 29.0662 30.4573C31.0599 30.4762 32.6587 32.0296 32.74 34.0253Z" fill="#00355F" stroke="#00355F" stroke-width="0.283474" stroke-miterlimit="10"/>
</g>
<defs>
<clipPath id="clip0_1702_1552">
<rect width="37.0368" height="37.05" fill="white" transform="translate(17 16)"/>
</clipPath>
</defs>
</svg>
