<svg width="69" height="69" viewBox="0 0 69 69" fill="none" xmlns="http://www.w3.org/2000/svg">
<circle cx="34.3493" cy="34.2399" r="28.4186" fill="#007AF3"/>
<circle cx="34.3912" cy="34.2818" r="33.446" stroke="#007AF3" stroke-width="1.67168" stroke-dasharray="1.41 1.41"/>
<path d="M34.4501 22.7953C32.393 22.7953 30.4201 23.6125 28.9654 25.0671C27.5108 26.5217 26.6936 28.4946 26.6936 30.5518C26.6936 36.6221 32.6153 43.9269 34.1671 45.7214C34.2504 45.8169 34.3681 45.8755 34.4945 45.8844C34.6209 45.8933 34.7456 45.8517 34.8415 45.7688L34.8888 45.7214C36.4199 43.9198 42.206 36.6221 42.206 30.5512C42.2059 28.4943 41.3887 26.5216 39.9342 25.0671C38.4797 23.6126 36.5071 22.7954 34.4501 22.7953ZM34.4501 32.6566C33.9298 32.6566 33.4213 32.5023 32.9887 32.2132C32.5561 31.9242 32.2189 31.5134 32.0198 31.0327C31.8208 30.552 31.7687 30.0231 31.8702 29.5129C31.9717 29.0026 32.2222 28.5339 32.5901 28.166C32.958 27.7981 33.4267 27.5476 33.9369 27.4461C34.4472 27.3446 34.9761 27.3967 35.4568 27.5958C35.9374 27.7949 36.3482 28.132 36.6373 28.5646C36.9263 28.9972 37.0806 29.5058 37.0806 30.0261V30.0326C37.0789 30.7291 36.801 31.3965 36.3079 31.8884C35.8147 32.3803 35.1466 32.6566 34.4501 32.6566Z" stroke="white" stroke-width="1.67168" stroke-linecap="round" stroke-linejoin="round"/>
</svg>
