<svg width="36" height="36" viewBox="0 0 36 36" fill="none" xmlns="http://www.w3.org/2000/svg">
<circle cx="18" cy="18" r="17.5" stroke="#007AF3"/>
<path d="M18 26.216C17.853 26.0344 17.669 25.8034 17.4581 25.5306C16.9018 24.8108 16.1608 23.8034 15.4206 22.6516C14.6797 21.4984 13.9452 20.2092 13.3974 18.9253C12.847 17.6352 12.5 16.3849 12.5 15.3C12.5 13.7541 13.0851 12.2761 14.1194 11.1901C15.153 10.1048 16.5494 9.5 18 9.5C19.4506 9.5 20.847 10.1048 21.8806 11.1901C22.9149 12.2761 23.5 13.7541 23.5 15.3C23.5 16.3849 23.153 17.6352 22.6026 18.9253C22.0548 20.2092 21.3203 21.4984 20.5794 22.6516C19.8392 23.8034 19.0982 24.8108 18.5419 25.5306C18.331 25.8034 18.147 26.0344 18 26.216Z" stroke="#007AF3"/>
</svg>
