<svg width="36" height="36" viewBox="0 0 36 36" fill="none" xmlns="http://www.w3.org/2000/svg">
<circle cx="18" cy="18" r="17.5" stroke="#007AF3"/>
<g clip-path="url(#clip0_1883_977)">
<path d="M13.4355 10C13.9504 10.0996 14.3212 10.4237 14.6729 10.7861C15.2958 11.4259 15.9399 12.0446 16.548 12.6972C17.1179 13.3116 17.1158 14.14 16.5543 14.7629C16.1645 15.1952 15.7428 15.5977 15.3276 16.0066C15.2428 16.0893 15.2237 16.1465 15.2767 16.2588C15.692 17.1275 16.2916 17.8605 16.942 18.5576C17.6073 19.2716 18.3362 19.9094 19.1604 20.4348C19.3849 20.5789 19.6265 20.6954 19.8574 20.8289C19.9358 20.8755 19.9824 20.8607 20.0439 20.7971C20.3935 20.4412 20.7367 20.0789 21.1032 19.742C21.3003 19.5598 21.5206 19.3797 21.7643 19.2737C22.3893 19.0004 22.9635 19.153 23.4423 19.617C24.1352 20.2886 24.8089 20.9836 25.4975 21.6594C26.2115 22.3608 26.2709 23.2888 25.6077 24.0028C25.1204 24.5303 24.6225 25.0516 24.0886 25.5325C23.5186 26.0474 22.8088 26.1745 22.0588 26.1152C20.8829 26.0198 19.8066 25.6045 18.762 25.0855C17.2154 24.3142 15.8106 23.3354 14.5754 22.1277C12.7194 20.3119 11.2235 18.2525 10.3697 15.7693C10.1324 15.0807 9.9862 14.3752 10.001 13.6421C10.0159 12.9302 10.251 12.3073 10.7532 11.7967C11.1685 11.3729 11.588 10.9534 12.0117 10.5382C12.2935 10.2606 12.6346 10.0805 13.0245 10.0021C13.1622 10 13.2978 10 13.4355 10ZM22.3342 25.3164C22.8258 25.3291 23.2792 25.2062 23.6373 24.8609C24.1076 24.4053 24.5674 23.935 25.0102 23.4519C25.3429 23.0896 25.3386 22.6934 24.9954 22.3417C24.2898 21.615 23.5695 20.9009 22.847 20.1912C22.5652 19.9157 22.2071 19.9072 21.8872 20.1424C21.8067 20.2018 21.7346 20.2717 21.6647 20.3416C21.2727 20.7293 20.885 21.1213 20.4931 21.509C20.2303 21.7696 19.957 21.8141 19.6328 21.6489C19.404 21.5323 19.1752 21.4137 18.9548 21.2823C17.9612 20.6869 17.0925 19.9369 16.3085 19.0915C15.5818 18.3076 14.9208 17.477 14.4779 16.4918C14.2851 16.0638 14.3296 15.8308 14.6665 15.5066C15.0521 15.1358 15.4377 14.7629 15.8106 14.3794C16.2513 13.9303 16.2471 13.5658 15.817 13.1082C15.8106 13.0997 15.8022 13.0934 15.7958 13.0849C15.1496 12.4387 14.5055 11.7903 13.8571 11.1484C13.7533 11.0467 13.6347 10.9492 13.5054 10.8899C13.1474 10.7225 12.8486 10.8687 12.5944 11.1187C12.1812 11.5213 11.7638 11.9238 11.374 12.3476C11.2024 12.5298 11.0519 12.7544 10.9566 12.9853C10.7384 13.5086 10.7956 14.0574 10.9057 14.5977C11.1134 15.6253 11.5075 16.5851 12.0223 17.4919C13.8571 20.7293 16.4272 23.1786 19.849 24.6956C20.6414 25.0431 21.4613 25.2867 22.3342 25.3164Z" fill="#007AF3"/>
</g>
<defs>
<clipPath id="clip0_1883_977">
<rect width="16.0686" height="16.13" fill="white" transform="translate(10 10)"/>
</clipPath>
</defs>
</svg>
