<svg width="36" height="36" viewBox="0 0 36 36" fill="none" xmlns="http://www.w3.org/2000/svg">
<circle cx="18" cy="18" r="17.5" stroke="#007AF3"/>
<path d="M10.5253 24C10.0908 24 9.72817 23.868 9.43728 23.604C9.14576 23.3394 9 23.01 9 22.6157V13.3843C9 12.99 9.14576 12.6609 9.43728 12.3969C9.72817 12.1323 10.0908 12 10.5253 12H24.4747C24.9092 12 25.2718 12.1323 25.5627 12.3969C25.8542 12.6609 26 12.99 26 13.3843V22.6157C26 23.01 25.8546 23.3391 25.5637 23.6031C25.2721 23.8677 24.9092 24 24.4747 24H10.5253ZM17.5 18.0986L9.94444 13.6157V22.6157C9.94444 22.7694 9.99891 22.8957 10.1078 22.9946C10.2168 23.0934 10.3559 23.1429 10.5253 23.1429H24.4747C24.6441 23.1429 24.7832 23.0934 24.8922 22.9946C25.0011 22.8957 25.0556 22.7694 25.0556 22.6157V13.6157L17.5 18.0986ZM17.5 17.1429L24.7647 12.8571H10.2353L17.5 17.1429ZM9.94444 13.6157V12.8571V22.6157C9.94444 22.7694 9.99891 22.8957 10.1078 22.9946C10.2168 23.0934 10.3559 23.1429 10.5253 23.1429H9.94444V13.6157Z" fill="#007AF3"/>
</svg>
