<svg width="69" height="69" viewBox="0 0 69 69" fill="none" xmlns="http://www.w3.org/2000/svg">
<circle cx="34.0499" cy="34.0499" r="33.0499" stroke="#007AF3" stroke-width="2"/>
<g clip-path="url(#clip0_1799_1001)">
<path d="M28.2313 48.7059C27.4242 49.8996 25.8981 49.8589 24.7179 49.5469C23.8972 49.3299 23.3546 48.516 23.3478 47.641C23.3342 44.7313 23.3275 41.8147 23.3478 38.905C23.3546 37.7452 24.2702 36.8702 25.4233 36.8363C25.7692 36.8295 26.1083 36.8295 26.4542 36.8363C27.1054 36.8498 27.6276 37.1415 28.0685 37.6095C30.0558 35.8664 31.3716 33.7434 31.955 31.1796C32.3077 29.6399 33.5557 29.0634 34.9529 29.7823C36.4179 30.5284 37.1504 32.1902 36.7164 33.8044C36.4857 34.6455 36.2212 35.473 35.9703 36.3072C35.9228 36.4565 35.8889 36.6125 35.8346 36.8159C36.011 36.8159 36.1398 36.8159 36.2687 36.8159C37.4692 36.8159 38.6765 36.8091 39.8771 36.8159C41.5863 36.8227 42.6512 37.9012 42.6579 39.6036C42.6579 40.7092 42.6647 41.8147 42.6579 42.9203C42.6444 44.4667 42.2238 45.8979 41.4235 47.2205C40.4875 48.7805 39.1106 49.6487 37.2861 49.6894C35.4955 49.7233 33.6981 49.7029 31.9075 49.6758C30.7409 49.6554 29.6285 49.3367 28.5772 48.8415C28.4755 48.794 28.3737 48.7534 28.272 48.7059C28.2584 48.6991 28.2449 48.6991 28.2313 48.7059ZM28.4823 43.1577C28.4823 44.4464 28.4755 45.7351 28.489 47.0238C28.489 47.1459 28.5501 47.329 28.645 47.3765C29.5539 47.8852 30.5238 48.2718 31.5683 48.3057C33.4675 48.3667 35.3734 48.3803 37.2793 48.3532C38.5612 48.3328 39.5447 47.702 40.2094 46.6033C40.847 45.552 41.2404 44.426 41.2607 43.1984C41.2811 42.0114 41.2472 40.8177 41.2065 39.6239C41.1793 38.6744 40.691 38.2199 39.7346 38.2199C38.1407 38.2199 36.54 38.2132 34.9461 38.2199C34.6002 38.2199 34.3221 38.1182 34.2136 37.7858C34.1593 37.6163 34.1797 37.3925 34.2339 37.2161C34.5798 36.002 34.9529 34.7947 35.3056 33.5806C35.6244 32.4886 35.1835 31.4373 34.2068 30.9761C33.6167 30.6912 33.3522 30.8201 33.203 31.4577C32.8706 32.8888 32.3144 34.2318 31.548 35.4865C30.8019 36.7006 29.8184 37.718 28.801 38.6947C28.5704 38.9118 28.4687 39.1356 28.4755 39.4612C28.4958 40.7024 28.4823 41.93 28.4823 43.1577ZM24.6908 43.2323C24.6908 44.6295 24.684 46.0335 24.6908 47.4307C24.6908 48.0683 24.9621 48.326 25.5861 48.3328C25.7489 48.3328 25.9049 48.3328 26.0676 48.3328C26.9222 48.3328 27.1393 48.1158 27.1393 47.268C27.1393 44.582 27.1393 41.8893 27.1393 39.2034C27.1393 39.0949 27.1393 38.9796 27.1325 38.8711C27.085 38.4234 26.8069 38.1657 26.3525 38.1521C26.1287 38.1453 25.9116 38.1521 25.6878 38.1521C24.9485 38.1521 24.6975 38.4031 24.6908 39.1492C24.6908 40.5057 24.6908 41.869 24.6908 43.2323Z" fill="#007AF3"/>
<path d="M30.884 28.1002C29.9413 28.0527 29.2426 27.2252 29.3986 26.2892C29.514 25.5635 29.636 24.8378 29.7853 24.112C29.8327 23.8678 29.7717 23.7254 29.6089 23.5694C29.0934 23.0743 28.5983 22.5656 28.0896 22.0637C27.6487 21.6296 27.4927 21.1141 27.6759 20.5172C27.859 19.9271 28.2727 19.5677 28.8832 19.4659C29.6225 19.3438 30.3618 19.2285 31.1079 19.1404C31.3588 19.1132 31.4673 18.9979 31.5623 18.7944C31.8607 18.1637 32.1727 17.5397 32.4847 16.9089C32.7628 16.3323 33.2173 16 33.8752 16C34.5331 16 34.9875 16.3323 35.2724 16.9157C35.5708 17.5329 35.8828 18.1433 36.1677 18.7741C36.2898 19.0386 36.4526 19.1607 36.7374 19.1946C37.4293 19.276 38.1211 19.3913 38.8129 19.4863C39.4234 19.5744 39.8575 19.9068 40.0609 20.4901C40.2644 21.0802 40.122 21.6092 39.6879 22.0501C39.1724 22.5724 38.6366 23.0811 38.1279 23.6169C38.0261 23.7254 37.9515 23.9357 37.9719 24.0917C38.0601 24.7971 38.1821 25.5025 38.2839 26.2011C38.3788 26.8319 38.2364 27.3812 37.7006 27.7679C37.1512 28.1612 36.5814 28.1409 36.0049 27.8289C35.3809 27.4898 34.7501 27.1506 34.1126 26.8386C33.9837 26.7776 33.7802 26.7776 33.6514 26.8386C32.9799 27.1642 32.322 27.5237 31.6505 27.8492C31.4063 27.9578 31.1418 28.0188 30.884 28.1002ZM29.0731 20.7885C29.2494 20.9988 29.3647 21.1684 29.5072 21.3108C30.0633 21.867 30.6263 22.4164 31.196 22.959C31.4741 23.2235 31.5555 23.5152 31.4809 23.8882C31.3249 24.7089 31.1893 25.5296 31.0536 26.3571C31.04 26.452 31.0672 26.5605 31.0807 26.6623C31.1825 26.6419 31.291 26.6419 31.3792 26.5945C32.1456 26.2011 32.9053 25.8077 33.6649 25.4007C33.9769 25.2312 34.255 25.2244 34.567 25.3939C35.2995 25.7941 36.0388 26.1807 36.7781 26.5605C36.8867 26.6148 37.0223 26.6284 37.1444 26.6623C37.158 26.5334 37.1919 26.3978 37.1715 26.2757C37.0427 25.516 36.9138 24.7496 36.7646 23.9899C36.6832 23.5626 36.7442 23.2099 37.0901 22.8979C37.6734 22.3689 38.2228 21.8059 38.779 21.2565C38.8672 21.1684 38.9215 21.0463 38.9961 20.9378C38.874 20.8767 38.7519 20.7885 38.623 20.7614C37.7955 20.6325 36.9748 20.5037 36.1474 20.4019C35.7879 20.3544 35.5708 20.1849 35.4148 19.8729C35.0418 19.1268 34.6484 18.3875 34.2618 17.6482C34.2007 17.5397 34.099 17.4447 34.0176 17.3497C33.9294 17.4515 33.8141 17.5464 33.7463 17.6617C33.3461 18.4078 32.9595 19.1607 32.5729 19.9136C32.4237 20.2052 32.2202 20.3409 31.8879 20.3884C30.979 20.4969 30.0701 20.6461 29.0731 20.7885Z" fill="#007AF3"/>
<path d="M47.7992 31.8645C47.5686 31.7831 47.3312 31.7288 47.1142 31.6271C46.5987 31.3761 46.0832 31.1048 45.5813 30.8199C45.3982 30.7182 45.2558 30.725 45.0794 30.8267C44.5775 31.1048 44.062 31.3693 43.5465 31.6338C43.0243 31.9052 42.502 31.9119 42.0204 31.5525C41.5389 31.193 41.3897 30.7046 41.505 30.1145C41.6135 29.5584 41.722 29.0022 41.7966 28.446C41.817 28.3036 41.7559 28.1069 41.661 27.9984C41.2472 27.5575 40.8131 27.1437 40.379 26.7232C39.9517 26.3095 39.7957 25.8144 40.006 25.2446C40.2095 24.6952 40.6368 24.4239 41.2065 24.3561C41.7695 24.2883 42.3257 24.2137 42.8818 24.1119C43.031 24.0848 43.2142 23.9559 43.2888 23.8203C43.5601 23.3251 43.7975 22.8097 44.0484 22.3077C44.3062 21.7923 44.7335 21.5074 45.31 21.5006C45.9001 21.4938 46.341 21.7855 46.6055 22.3145C46.8565 22.8097 47.1142 23.298 47.338 23.7999C47.4398 24.0237 47.589 24.1051 47.8128 24.1323C48.3486 24.2001 48.8845 24.2883 49.4203 24.3561C50.0104 24.4307 50.4445 24.7088 50.6344 25.2785C50.8311 25.8618 50.6547 26.357 50.2139 26.7775C49.8137 27.1573 49.4338 27.5643 49.0269 27.9373C48.837 28.1137 48.8031 28.29 48.8438 28.5206C48.9523 29.0971 49.0608 29.6805 49.1558 30.2638C49.2914 31.1048 48.6674 31.8238 47.7992 31.8645ZM47.8128 30.474C47.6907 29.7076 47.5822 29.0158 47.4601 28.3307C47.3855 27.9102 47.4465 27.5711 47.7925 27.2726C48.1519 26.9606 48.4775 26.6011 48.8234 26.2756C48.9862 26.1196 49.1625 25.9839 49.3389 25.8347C49.3118 25.8008 49.2914 25.7669 49.2643 25.733C48.5792 25.6177 47.8942 25.4888 47.2024 25.4006C46.7818 25.3464 46.5105 25.1768 46.3274 24.7834C46.029 24.1255 45.6898 23.4879 45.3439 22.7961C44.9844 23.5015 44.6385 24.1526 44.3265 24.8105C44.157 25.17 43.8992 25.3464 43.5058 25.3938C42.7937 25.4752 42.0883 25.5973 41.3015 25.7126C41.9051 26.3095 42.441 26.8589 42.9971 27.3947C43.2617 27.6457 43.3566 27.917 43.2684 28.29C43.1057 28.9818 42.9904 29.6805 42.8344 30.4469C43.5601 30.0874 44.218 29.7686 44.8624 29.4295C45.1879 29.2599 45.4728 29.2531 45.7984 29.4295C46.4427 29.7754 47.1006 30.101 47.8128 30.474Z" fill="#007AF3"/>
<path d="M24.8879 31.8643C24.6505 31.783 24.3995 31.7151 24.1689 31.6066C23.6602 31.3557 23.1651 31.0979 22.67 30.8198C22.4936 30.7181 22.3512 30.7113 22.168 30.813C21.6661 31.0911 21.1507 31.3489 20.6352 31.6202C20.1129 31.8983 19.5906 31.905 19.1091 31.5456C18.6275 31.1861 18.4715 30.7045 18.5868 30.1144C18.6953 29.5718 18.7699 29.0224 18.8853 28.4866C18.9327 28.256 18.8785 28.1 18.7021 27.9372C18.268 27.537 17.8543 27.1165 17.4406 26.696C17.0268 26.289 16.8844 25.8007 17.0879 25.2445C17.2846 24.7087 17.6915 24.4306 18.2477 24.3492C18.8039 24.2746 19.3668 24.1864 19.923 24.1186C20.1468 24.0915 20.296 24.0101 20.3978 23.7862C20.6216 23.2843 20.8793 22.796 21.1303 22.3008C21.4016 21.7718 21.8357 21.4801 22.4258 21.4869C23.0023 21.4937 23.4296 21.7786 23.6874 22.2941C23.9383 22.7892 24.1893 23.2775 24.4199 23.7795C24.5216 24.0033 24.6641 24.0915 24.8879 24.1186C25.4508 24.1864 26.007 24.2746 26.5632 24.3492C27.1329 24.4306 27.5535 24.7155 27.7434 25.2716C27.9333 25.8278 27.7705 26.3094 27.3568 26.7163C26.9566 27.1097 26.5564 27.5167 26.1359 27.8965C25.9256 28.0864 25.8714 28.2696 25.9256 28.5409C26.0477 29.1038 26.1359 29.6736 26.2308 30.2433C26.3868 31.0911 25.7561 31.8169 24.8879 31.8643ZM22.4326 22.796C22.1477 23.3522 21.8425 23.8202 21.6593 24.3356C21.3745 25.1292 20.8454 25.4548 20.0247 25.4751C19.4957 25.4955 18.9734 25.6243 18.3833 25.7125C18.9734 26.3026 19.4957 26.8384 20.0383 27.3471C20.3367 27.632 20.4385 27.9236 20.3367 28.3374C20.174 29.0089 20.0586 29.6939 19.9162 30.4468C20.608 30.0941 21.2388 29.8024 21.8493 29.4633C22.2494 29.2463 22.5954 29.2463 22.9887 29.4701C23.5924 29.816 24.2164 30.1212 24.8879 30.4671C24.7658 29.7143 24.6776 29.0224 24.542 28.3374C24.4538 27.8965 24.5555 27.5642 24.8811 27.2454C25.383 26.7638 25.8374 26.2348 26.319 25.7193C25.6611 25.6108 24.9693 25.4751 24.2639 25.3869C23.8366 25.3327 23.572 25.1496 23.3957 24.7629C23.1108 24.1254 22.7785 23.5014 22.4326 22.796Z" fill="#007AF3"/>
</g>
<defs>
<clipPath id="clip0_1799_1001">
<rect width="33.7232" height="33.73" fill="white" transform="translate(17 16)"/>
</clipPath>
</defs>
</svg>
