<svg width="70" height="69" viewBox="0 0 70 69" fill="none" xmlns="http://www.w3.org/2000/svg">
<circle cx="34.8844" cy="34.3404" r="28.4186" fill="#007AF3"/>
<circle cx="34.8257" cy="34.2818" r="33.446" stroke="#007AF3" stroke-width="1.67168" stroke-dasharray="1.41 1.41"/>
<path d="M34.9301 23.4799C34.7956 23.3751 34.6301 23.3182 34.4597 23.3182C34.2892 23.3182 34.1237 23.3751 33.9893 23.4799L23.1042 31.9675L24.0458 33.1583L25.3767 32.1205V41.4974C25.3775 41.8989 25.5374 42.2838 25.8213 42.5678C26.1052 42.8517 26.4901 43.0116 26.8917 43.0124H42.0413C42.4428 43.0116 42.8277 42.8517 43.1117 42.5678C43.3956 42.2838 43.5555 41.8989 43.5563 41.4974V32.1274L44.8872 33.1651L45.8287 31.9743L34.9301 23.4799ZM35.9814 41.4974H32.9515V35.4375H35.9814V41.4974ZM37.4964 41.4974V35.4375C37.496 35.0359 37.3363 34.6508 37.0522 34.3667C36.7682 34.0827 36.3831 33.923 35.9814 33.9226H32.9515C32.5498 33.923 32.1647 34.0827 31.8807 34.3667C31.5967 34.6508 31.4369 35.0359 31.4365 35.4375V41.4974H26.8917V30.9396L34.4665 25.0388L42.0413 30.9472V41.4974H37.4964Z" fill="white"/>
</svg>
