<svg width="35" height="35" viewBox="0 0 35 35" fill="none" xmlns="http://www.w3.org/2000/svg">
<circle cx="17.5" cy="17.5" r="17" stroke="#4F4F4F"/>
<g clip-path="url(#clip0_1739_1553)">
<path d="M22.3867 11.6004C22.1867 11.6004 21.9912 11.6597 21.8249 11.7708C21.6587 11.8819 21.5291 12.0398 21.4525 12.2246C21.376 12.4094 21.356 12.6127 21.395 12.8088C21.434 13.0049 21.5303 13.1851 21.6717 13.3265C21.8131 13.4679 21.9933 13.5642 22.1894 13.6032C22.3856 13.6422 22.5889 13.6222 22.7736 13.5457C22.9584 13.4692 23.1163 13.3396 23.2274 13.1733C23.3385 13.007 23.3978 12.8115 23.3978 12.6115C23.3978 12.3434 23.2913 12.0862 23.1016 11.8966C22.912 11.707 22.6548 11.6004 22.3867 11.6004ZM26.2626 13.6395C26.2462 12.9404 26.1153 12.2487 25.875 11.592C25.6608 11.0301 25.3273 10.5213 24.8976 10.1006C24.4804 9.66872 23.9704 9.33737 23.4062 9.13163C22.7512 8.88405 22.0588 8.75012 21.3587 8.73561C20.4656 8.68506 20.1791 8.68506 17.8872 8.68506C15.5954 8.68506 15.3089 8.68506 14.4157 8.73561C13.7157 8.75012 13.0232 8.88405 12.3682 9.13163C11.8051 9.33946 11.2956 9.67052 10.8769 10.1006C10.445 10.5178 10.1136 11.0278 9.90788 11.592C9.66029 12.247 9.52636 12.9394 9.51186 13.6395C9.4613 14.5327 9.4613 14.8191 9.4613 17.111C9.4613 19.4028 9.4613 19.6893 9.51186 20.5825C9.52636 21.2825 9.66029 21.975 9.90788 22.63C10.1136 23.1941 10.445 23.7041 10.8769 24.1214C11.2956 24.5514 11.8051 24.8825 12.3682 25.0903C13.0232 25.3379 13.7157 25.4719 14.4157 25.4864C15.3089 25.5369 15.5954 25.5369 17.8872 25.5369C20.1791 25.5369 20.4656 25.5369 21.3587 25.4864C22.0588 25.4719 22.7512 25.3379 23.4062 25.0903C23.9704 24.8846 24.4804 24.5532 24.8976 24.1214C25.3292 23.7022 25.663 23.193 25.875 22.63C26.1153 21.9732 26.2462 21.2816 26.2626 20.5825C26.2626 19.6893 26.3132 19.4028 26.3132 17.111C26.3132 14.8191 26.3132 14.5327 26.2626 13.6395ZM24.7459 20.4814C24.7398 21.0162 24.6429 21.5461 24.4594 22.0486C24.3249 22.4153 24.1088 22.7466 23.8275 23.0176C23.5542 23.296 23.2236 23.5117 22.8585 23.6495C22.3561 23.833 21.8262 23.9298 21.2913 23.936C20.4487 23.9781 20.137 23.9865 17.9209 23.9865C15.7049 23.9865 15.3932 23.9865 14.5506 23.936C13.9952 23.9464 13.4422 23.8609 12.9159 23.6832C12.5669 23.5383 12.2514 23.3232 11.9891 23.0513C11.7094 22.7806 11.496 22.449 11.3656 22.0823C11.1598 21.5726 11.0458 21.0307 11.0285 20.4814C11.0285 19.6388 10.978 19.327 10.978 17.111C10.978 14.895 10.978 14.5832 11.0285 13.7406C11.0323 13.1938 11.1321 12.6519 11.3234 12.1397C11.4718 11.784 11.6995 11.467 11.9891 11.2128C12.2451 10.9231 12.5614 10.693 12.9159 10.5388C13.4295 10.3534 13.9709 10.2566 14.5169 10.2523C15.3595 10.2523 15.6712 10.2017 17.8872 10.2017C20.1032 10.2017 20.415 10.2017 21.2576 10.2523C21.7925 10.2584 22.3224 10.3553 22.8248 10.5388C23.2077 10.6809 23.5514 10.9119 23.8275 11.2128C24.1036 11.4717 24.3194 11.7881 24.4594 12.1397C24.6467 12.6528 24.7436 13.1944 24.7459 13.7406C24.7881 14.5832 24.7965 14.895 24.7965 17.111C24.7965 19.327 24.7881 19.6388 24.7459 20.4814ZM17.8872 12.7885C17.0327 12.7902 16.1978 13.0451 15.4881 13.521C14.7784 13.997 14.2256 14.6727 13.8998 15.4627C13.5739 16.2526 13.4895 17.1215 13.6572 17.9594C13.825 18.7973 14.2373 19.5667 14.8422 20.1704C15.447 20.7741 16.2172 21.1849 17.0555 21.351C17.8937 21.5171 18.7624 21.431 19.5517 21.1036C20.3411 20.7762 21.0157 20.2222 21.4903 19.5116C21.9649 18.8009 22.2182 17.9655 22.2182 17.111C22.2193 16.5423 22.1079 15.9791 21.8906 15.4536C21.6732 14.9281 21.3541 14.4508 20.9516 14.049C20.5491 13.6473 20.0712 13.3292 19.5453 13.1128C19.0194 12.8965 18.4559 12.7863 17.8872 12.7885ZM17.8872 19.9168C17.3323 19.9168 16.7898 19.7523 16.3284 19.4439C15.867 19.1356 15.5073 18.6974 15.295 18.1847C15.0826 17.672 15.027 17.1079 15.1353 16.5636C15.2436 16.0193 15.5108 15.5194 15.9032 15.127C16.2956 14.7346 16.7956 14.4673 17.3398 14.3591C17.8841 14.2508 18.4483 14.3064 18.961 14.5187C19.4737 14.7311 19.9119 15.0907 20.2202 15.5521C20.5285 16.0136 20.6931 16.556 20.6931 17.111C20.6931 17.4795 20.6205 17.8443 20.4795 18.1847C20.3385 18.5251 20.1318 18.8345 19.8713 19.095C19.6107 19.3556 19.3014 19.5622 18.961 19.7032C18.6206 19.8442 18.2557 19.9168 17.8872 19.9168Z" fill="#4F4F4F"/>
</g>
<defs>
<clipPath id="clip0_1739_1553">
<rect width="24" height="24" fill="white" transform="translate(7.55469 5.00049)"/>
</clipPath>
</defs>
</svg>
