<svg width="43" height="42" viewBox="0 0 43 42" fill="none" xmlns="http://www.w3.org/2000/svg">
<rect width="43" height="42" rx="21" fill="#00355F"/>
<path d="M11.776 34L10.092 28.24H11.104L12.252 32.4L13.396 28.248L14.408 28.24L15.556 32.4L16.7 28.24H17.712L16.032 34H15.08L13.9 29.904L12.728 34H11.776ZM18.2884 29.024V28.14H19.2524V29.024H18.2884ZM18.2884 34V29.68H19.2524V34H18.2884ZM20.8266 34V29.612C20.8266 29.5027 20.8306 29.3827 20.8386 29.252C20.8466 29.1187 20.8693 28.9867 20.9066 28.856C20.944 28.7253 21.012 28.6067 21.1106 28.5C21.2333 28.364 21.3653 28.2707 21.5066 28.22C21.6506 28.1667 21.792 28.1373 21.9306 28.132C22.0693 28.124 22.1906 28.12 22.2946 28.12H22.8346V28.904H22.3346C22.1506 28.904 22.0133 28.9507 21.9226 29.044C21.8346 29.1347 21.7906 29.2547 21.7906 29.404V34H20.8266ZM20.1306 30.436V29.68H22.8346V30.436H20.1306ZM23.6746 29.024V28.14H24.6386V29.024H23.6746ZM23.6746 34V29.68H24.6386V34H23.6746ZM29.4348 34.12C29.0588 34.12 28.7201 34.032 28.4188 33.856C28.1201 33.6773 27.8828 33.4307 27.7068 33.116C27.5308 32.8013 27.4428 32.44 27.4428 32.032V30.28C27.4428 29.8427 27.5295 29.4627 27.7028 29.14C27.8788 28.8173 28.1241 28.568 28.4388 28.392C28.7561 28.216 29.1241 28.128 29.5428 28.128C29.8335 28.128 30.1095 28.1773 30.3708 28.276C30.6321 28.372 30.8641 28.5267 31.0668 28.74L30.3708 29.416C30.2695 29.296 30.1455 29.2013 29.9988 29.132C29.8548 29.0627 29.7028 29.028 29.5428 29.028C29.3188 29.028 29.1228 29.0813 28.9548 29.188C28.7868 29.292 28.6561 29.4293 28.5628 29.6C28.4721 29.7707 28.4268 29.9533 28.4268 30.148V31.104L28.2508 30.912C28.4161 30.72 28.6148 30.5707 28.8468 30.464C29.0788 30.3547 29.3215 30.3 29.5748 30.3C29.9375 30.3 30.2575 30.3827 30.5348 30.548C30.8121 30.7107 31.0308 30.9347 31.1908 31.22C31.3508 31.5027 31.4308 31.8253 31.4308 32.188C31.4308 32.548 31.3388 32.8747 31.1548 33.168C30.9735 33.4587 30.7321 33.6907 30.4308 33.864C30.1295 34.0347 29.7975 34.12 29.4348 34.12ZM29.4348 33.196C29.6215 33.196 29.7921 33.152 29.9468 33.064C30.1015 32.9733 30.2241 32.852 30.3148 32.7C30.4081 32.5453 30.4548 32.3747 30.4548 32.188C30.4548 32.0013 30.4095 31.8307 30.3188 31.676C30.2281 31.5213 30.1055 31.3987 29.9508 31.308C29.7988 31.2147 29.6295 31.168 29.4428 31.168C29.2561 31.168 29.0855 31.2147 28.9308 31.308C28.7761 31.3987 28.6535 31.5213 28.5628 31.676C28.4721 31.8307 28.4268 32.0013 28.4268 32.188C28.4268 32.3693 28.4708 32.5373 28.5588 32.692C28.6495 32.844 28.7708 32.9667 28.9228 33.06C29.0775 33.1507 29.2481 33.196 29.4348 33.196Z" fill="white"/>
<path d="M21.5 22.3659C21.2016 22.3659 20.9155 22.2474 20.7045 22.0364C20.4935 21.8254 20.375 21.5393 20.375 21.2409C20.375 20.9425 20.4935 20.6564 20.7045 20.4454C20.9155 20.2344 21.2016 20.1159 21.5 20.1159C21.7984 20.1159 22.0845 20.2344 22.2955 20.4454C22.5065 20.6564 22.625 20.9425 22.625 21.2409C22.625 21.5393 22.5065 21.8254 22.2955 22.0364C22.0845 22.2474 21.7984 22.3659 21.5 22.3659ZM19.1307 19.4949C18.992 19.7522 18.7585 19.9454 18.4798 20.0336C18.201 20.1217 17.8989 20.0979 17.6374 19.9672C17.3759 19.8364 17.1756 19.609 17.0789 19.3331C16.9822 19.0573 16.9966 18.7546 17.1192 18.4892C17.5264 17.6761 18.1519 16.9923 18.9256 16.5145C19.6992 16.0367 20.5906 15.7836 21.5 15.7836C22.4093 15.7836 23.3007 16.0367 24.0744 16.5145C24.8481 16.9923 25.4736 17.6761 25.8807 18.4892C25.9523 18.6218 25.9964 18.7674 26.0106 18.9174C26.0247 19.0674 26.0086 19.2187 25.9632 19.3623C25.9178 19.506 25.8439 19.6391 25.7461 19.7536C25.6483 19.8682 25.5284 19.962 25.3937 20.0294C25.2589 20.0967 25.112 20.1364 24.9616 20.1459C24.8113 20.1554 24.6605 20.1346 24.5183 20.0848C24.3762 20.0349 24.2454 19.957 24.1339 19.8557C24.0224 19.7544 23.9324 19.6317 23.8692 19.4949C23.6497 19.0544 23.3117 18.6838 22.8932 18.4247C22.4747 18.1657 21.9922 18.0284 21.5 18.0284C21.0078 18.0284 20.5253 18.1657 20.1068 18.4247C19.6883 18.6838 19.3503 19.0544 19.1307 19.4949ZM15.65 16.2943C15.5614 16.4125 15.4503 16.512 15.3232 16.5873C15.1961 16.6626 15.0553 16.7121 14.9091 16.733C14.6137 16.7752 14.3137 16.6983 14.075 16.5193C13.8363 16.3403 13.6785 16.0737 13.6363 15.7784C13.6154 15.6321 13.6235 15.4832 13.6602 15.3401C13.6969 15.197 13.7614 15.0625 13.85 14.9443C14.7411 13.7573 15.8963 12.7939 17.224 12.1304C18.5518 11.4669 20.0157 11.1215 21.5 11.1215C22.9843 11.1215 24.4482 11.4669 25.776 12.1304C27.1037 12.7939 28.2589 13.7573 29.15 14.9443C29.2386 15.0625 29.3031 15.197 29.3398 15.3401C29.3765 15.4832 29.3846 15.6321 29.3637 15.7784C29.3428 15.9246 29.2933 16.0653 29.218 16.1925C29.1428 16.3196 29.0432 16.4306 28.925 16.5193C28.8068 16.6079 28.6723 16.6724 28.5292 16.7091C28.3861 16.7457 28.2371 16.7539 28.0909 16.733C27.9446 16.7121 27.8039 16.6626 27.6768 16.5873C27.5497 16.512 27.4386 16.4125 27.35 16.2943C26.6684 15.3867 25.7851 14.6502 24.7697 14.1429C23.7544 13.6356 22.635 13.3715 21.5 13.3715C20.365 13.3715 19.2456 13.6356 18.2302 14.1429C17.2149 14.6502 16.3315 15.3867 15.65 16.2943ZM12.2109 12.998C12.008 13.2056 11.7327 13.3268 11.4426 13.3362C11.1525 13.3456 10.87 13.2424 10.6541 13.0484C10.4382 12.8543 10.3058 12.5843 10.2843 12.2948C10.2629 12.0053 10.3542 11.7188 10.5391 11.495C15.9875 5.44591 25.3104 4.95541 31.3651 10.4004C31.7499 10.7458 32.1155 11.1114 32.4609 11.495C32.5597 11.6048 32.636 11.733 32.6853 11.8722C32.7346 12.0114 32.756 12.159 32.7482 12.3065C32.7405 12.454 32.7038 12.5986 32.6402 12.7319C32.5766 12.8652 32.4874 12.9847 32.3776 13.0835C32.2679 13.1824 32.1397 13.2586 32.0005 13.3079C31.8612 13.3572 31.7136 13.3786 31.5661 13.3709C31.4186 13.3632 31.2741 13.3265 31.1408 13.2629C31.0074 13.1993 30.888 13.11 30.7891 13.0003C30.4962 12.6742 30.186 12.364 29.8599 12.071C24.7299 7.45741 16.8279 7.87028 12.2109 12.998Z" fill="white"/>
</svg>
