<svg width="35" height="35" viewBox="0 0 35 35" fill="none" xmlns="http://www.w3.org/2000/svg">
<circle cx="17.5" cy="17.5" r="17" stroke="#4F4F4F"/>
<path d="M14 23H11V13H14V23ZM25 23H22V17.658C22 16.266 21.504 15.573 20.521 15.573C19.742 15.573 19.248 15.961 19 16.738V23H16C16 23 16.04 14 16 13H18.368L18.551 15H18.613C19.228 14 20.211 13.322 21.559 13.322C22.584 13.322 23.413 13.607 24.046 14.323C24.683 15.04 25 16.002 25 17.353V23Z" fill="#4F4F4F"/>
<path d="M12.5002 12C13.3562 12 14.0502 11.3284 14.0502 10.5C14.0502 9.67157 13.3562 9 12.5002 9C11.6442 9 10.9502 9.67157 10.9502 10.5C10.9502 11.3284 11.6442 12 12.5002 12Z" fill="#4F4F4F"/>
</svg>
